<?xml version="1.0"?><svg version="1.2" baseProfile="tiny-ps" viewBox="0 0 300 300" xmlns="http://www.w3.org/2000/svg" xmlns:xlink="http://www.w3.org/1999/xlink"><title>Tuxia Shop</title><g><g fill="#fefefe" transform="matrix(.1 0 0 -.1 0 300)"><path d="M0 1500V0h3000v3000H0V1500z"/></g><g fill="#d0d0d0" transform="matrix(.1 0 0 -.1 0 300)"><path d="M2 2298c0-387 3-687 5-668s13 83 24 142l20 108 35 102c40 117 100 235 180 355l55 83 103 107 103 108 80 57c114 82 223 146 327 191l91 39 114 29c63 16 151 33 195 38l81 8-707 2-708 1 2-702zm1628 695c76-6 211-33 298-59 469-141 843-507 996-976l34-103 16-100c9-55 17-113 19-130 2-16 5 286 6 673l1 702-707-2c-390-1-688-3-663-5zm-330-589c-84-18-136-37-235-87l-80-41-100-101-100-100-38-65c-44-77-94-201-103-259l-7-41h99l18 58c10 31 37 93 59 137l42 80 90 90 90 90 58 34c32 19 94 47 137 62l78 28 83 11 84 12 75-7 75-7 83-24c45-13 114-40 153-60l71-35-41-44-41-44 6-16 6-15h112c61 0 162 3 224 7l112 6v34l-121 149-122 149-17 3-18 3-22-65c-12-36-25-66-29-66-3 0-37 16-73 35-79 42-158 71-251 90l-68 15-112-1-112-1-65-14zm-3-439c-132-62-244-118-250-124l-11-11 98-45c54-25 103-45 110-45 12 0 444 197 508 231l22 12-95 48-94 48h-25l-25-1-238-113zm953 33c0-3 15-38 34-79 18-41 42-103 52-139l19-65-1-140v-140l-28-90-27-90-40-75c-53-99-125-188-205-254l-66-55-82-40-81-41-79-20-79-20h-214l-79 20-79 20-90 45c-49 25-99 52-109 60l-20 15 33 34 33 34-4 18-3 19-30 4c-17 1-108 0-203-4l-173-7-6-13-5-14 117-150 116-151h36l18 60c10 34 21 63 25 65s24-8 45-22 75-43 120-64l82-39 89-21 89-22 115 1h115l77 21c164 43 307 128 419 249l64 70 41 68c46 78 86 173 111 266l18 63v280l-23 79-23 80-40 77c-34 64-79 126-79 107zm-435-88c-22-11-134-65-249-120l-209-100 6-6c8-9 217-104 227-104 13 0 454 231 469 246l15 13-98 46c-54 25-103 45-109 44-7 0-30-9-52-19zm-808-126-7-7v-604l18-15c9-9 131-73 270-143l253-127 15 6 14 5-2 318-3 317-85 42c-47 22-95 44-107 48l-23 7v-113l-1-113-20 25c-12 14-27 33-34 43l-13 19-31-16-31-17v238l-92 43c-118 54-113 52-121 44zm844-124-225-119-8-15-8-15 2-307 3-307 10-4c6-1 114 57 240 130l230 133 3 312 2 312-12-1c-7 0-114-54-237-119zm-1298-60c-96-6-124-12-111-26 12-11 196-23 351-24h158l5 15 6 15-12 15-12 15-142-2c-77 0-187-4-243-8zm90-170c-68-4-126-10-130-14l-7-7 14-9c14-9 109-16 303-24l108-4 14 15 15 14-10 20-11 19-87-2c-48 0-142-4-209-8zM1 703 0 0l708 1 707 2-70 8c-326 41-587 159-840 379-191 166-344 399-428 651l-35 104-16 100c-9 55-17 114-19 130-2 17-5-286-6-672zm2982 600c-16-125-41-225-93-357l-41-105-52-85c-82-136-135-203-243-311l-101-100-79-57c-201-144-441-239-684-272L1585 2l708-1 707-1v700c0 385-1 700-3 700-1 0-8-44-14-97zm-2340-50c-13-2-23-8-23-13v-9l43-6c23-3 96-5 162-3l120 3v30l-140 1c-77 1-150 0-162-3z"/></g><g fill="#a09f9f" transform="matrix(.1 0 0 -.1 0 300)"><path d="m1 2298 2-703 8 75c42 362 241 733 519 965 244 203 552 336 830 358 25 2-271 4-657 5l-703 2 1-702zm1710 687c238-37 440-117 634-249l89-61 99-95 99-94 62-84c77-102 136-203 188-323l39-92 30-115c16-63 33-151 38-196l8-81 2 703 1 702-687-1-688-1 86-13zm-391-580c-341-69-604-327-675-663l-7-33 47 3 47 3 27 76c15 42 47 110 71 150l43 74 71 70 71 71 62 37c85 52 164 82 263 103l84 17 101-6 100-6 59-15c75-21 194-71 226-96l25-19-39-40-39-40 7-16 6-17 213 7c116 4 216 10 220 12 16 10-1 35-121 183l-124 151-11-4c-7-2-23-32-36-68-14-35-26-65-27-67s-24 10-51 26c-74 44-178 83-278 103l-90 19-90-1-90-1-65-13zm-23-443-247-117 3-10c2-5 46-29 98-53l95-43 257 118c141 65 257 120 257 123 0 8-188 100-203 99-6 0-123-53-260-117zm963 27c0-3 16-42 35-86s42-109 51-144l17-64v-220l-22-88-21-88-33-73c-45-97-94-168-170-245l-62-64-73-48c-75-49-142-79-247-107l-60-16-120 1-120 1-88 26c-123 37-267 112-267 140 0 7 13 25 30 41 32 30 38 51 17 56-6 2-99 2-206-1l-194-5-4-10c-2-6 49-78 112-160l115-150h34l20 63c11 34 23 62 27 62s36-18 71-39c83-53 194-96 297-117l85-17 115 6 116 6 60 16c33 9 105 38 160 65l100 50 61 52c34 29 85 80 113 113l51 60 51 98 50 98 26 97 25 97v240l-21 80c-23 87-65 182-105 242-14 20-26 35-26 32zm-595-155c-110-53-224-107-253-121s-52-26-50-28c2-1 54-26 116-54l112-51 235 122c129 68 235 127 235 131 0 7-180 98-191 97-2-1-94-44-204-96zm-659-52c-3-3-6-139-6-302v-296l13-16c6-9 128-76 270-148l257-132 15 6 15 5v616l-8 11c-10 15-199 103-206 96-3-3-6-55-6-116v-110l-31 43-32 43-16-5c-9-3-24-8-33-12l-18-7v232l-67 34c-94 47-140 65-147 58zm847-125-232-122-1-322c0-178 2-323 5-323 9 0 440 252 458 268l17 15v607h-7c-5-1-113-56-240-123zm-1181-57c-194-6-234-11-221-25 7-7 307-25 412-25h87v48l-16 6c-9 3-23 5-32 4s-113-4-230-8zm-104-179c-26-4-50-10-53-13l-7-6 59-8c32-4 130-8 218-8l160-1 3 23 3 22-168-1c-92-1-189-5-215-8zm2422-66c0-62-33-225-65-320-14-44-48-126-75-182l-48-102-62-90c-195-286-480-494-812-595l-113-34-80-11c-44-6-93-12-110-14-16-2 286-5 673-6l702-1v700c0 385-2 700-5 700s-5-20-5-45zM2 698 0 0l703 2c386 0 686 3 667 5C849 58 393 371 157 840l-48 95-34 105c-32 101-60 231-68 315-2 22-4-274-5-657zm661 555c-18-2-33-8-33-13v-8l73-7c39-3 110-5 157-3l85 3v30l-125 1c-69 1-140-1-157-3z"/></g><g fill="#757474" transform="matrix(.1 0 0 -.1 0 300)"><path d="m1 2313 2-688 8 65c5 36 22 117 38 180l29 115 39 90c208 482 654 831 1158 909l90 14-682 1-683 1 1-687zm1704 676c166-22 402-104 554-195 46-27 130-87 188-133l104-83 66-77c182-212 300-445 352-697 11-55 22-112 24-129 2-16 5 275 6 648l1 677-682-1-683-2 70-8zm-345-581c-36-5-105-23-155-39l-90-30-70-41-70-41-95-96-96-96-51-100-52-101-20-73-20-72 46 3 45 3 29 79 29 79 44 71 45 71 68 67c114 111 252 183 397 209l69 12 116-6 116-5 70-22c39-12 105-40 149-62l79-40-43-43-43-44 7-17 6-17 53 7c28 3 125 6 215 6h163l5 14 5 14-122 151-123 151h-34l-22-65c-12-36-23-65-25-65s-36 18-77 39c-40 22-110 51-155 65l-81 25-83 11c-96 12-138 11-229-2zm-50-444c-135-63-249-119-254-124l-9-9 59-26c32-15 77-35 100-45l41-18 234 110c129 60 245 114 259 120l25 10-104 49c-57 27-104 49-105 49s-111-53-246-116zm986-51c9-21 21-53 27-70 6-18 14-33 19-33h9l-7 23c-9 30-53 117-59 117-3 0 2-17 11-37zm-576-57c-74-35-184-87-245-116l-110-53 93-43c52-24 104-47 117-50l23-6 219 114c120 62 224 114 231 116 6 2 12 7 12 11 0 10-167 91-188 91-9 0-78-29-152-64zm-710-379v-304l18-15c15-14 515-268 527-268 3 0 5 144 5 321v320l-95 45c-52 24-97 44-100 44s-5-49-5-110v-110h-9c-4 0-21 18-36 40-31 45-36 47-70 24l-25-16v242l-96 45c-54 25-101 45-105 45h-9v-303zm840 174-225-119-3-316-2-316h11c17 0 442 249 457 268l12 16v586h-12c-7-1-114-54-238-119zm-1124-60-6-9 15-12 15-13 98-1 97-1 3 23 3 22H731l-5-9zm-32-178-18-18 60-8c32-4 93-6 134-5l75 3v40l-116 3-117 3-18-18zM2 683 0 0l688 1 687 1-89 14c-270 42-490 138-712 310l-81 63-87 92-88 93-60 90c-73 110-136 233-176 347-29 83-68 246-75 319-2 19-5-272-5-647zm2988 640c0-58-44-237-85-348-46-126-118-258-200-366l-63-84-104-100-103-100-90-61C2144 127 1890 31 1660 7c-19-2 274-5 653-5l687-2v680c0 374-2 680-5 680s-5-17-5-37zm-2265-70c-22-2-47-7-55-10l-15-7 65-7c36-4 100-7 143-8l77-1v40l-87-2c-49-1-106-3-128-5zm9-258-6-16 103-135c57-74 109-142 116-151l12-16 13 6 13 5 19 66c10 36 20 66 22 66s31-18 64-39c33-22 95-54 138-71l77-33 90-18 90-19h71c123 0 260 33 378 92l58 29-22 25c-13 13-31 26-40 29l-16 5-60-24c-32-13-94-31-136-40l-77-16h-149l-74 14c-120 23-228 69-316 134l-34 24 37 38 37 38-6 11-7 11H739l-5-15z"/></g><g fill="#4b4a4a" transform="matrix(.1 0 0 -.1 0 300)"><path d="M1 2328c1-370 4-662 6-648 85 536 382 942 868 1182 115 58 274 104 445 131 14 2-278 5-647 6l-673 1 1-672zm1714 661c557-81 1030-481 1214-1025l31-92 19-108 19-109 1 673 1 672-672-1-673-1 60-9zm297-658-22-68-95 48c-53 27-104 49-115 49h-20v-59l11-6c5-4 8-12 6-18l-3-11 50-24c28-13 65-32 83-43l33-21-40-47c-22-26-40-50-40-54v-7h425l14 9 15 10-35 43c-19 24-74 94-124 156l-90 111-16 1h-15l-22-69zm-996-559c-3-3-6-139-6-302v-298l13-10c26-21 505-262 520-262h17v627l-25-5-25-4 6 16 6 16h-15c-9 0-19-4-22-10-10-16-19-12-30 13l-10 22-27-3-26-2 5 20 5 20h-9c-5 0-14-5-21-12l-12-12v-186h-8c-5 0-23 18-41 40l-32 40-28-15-28-14-7 6c-3 4-6 58-6 120v114l-10-6-10-6-6 14-5 15-45 7-45 6-6 14c-6 17-59 46-67 37zM1 673 0 0l678 1c372 1 664 4 647 6-227 28-458 116-665 254l-95 63-125 125-125 126-57 85C140 838 54 1047 20 1242L2 1345 1 673zm2989 630c0-16-11-76-24-134l-24-106-41-104c-47-120-105-225-188-341l-58-82-89-88c-104-104-199-178-316-248l-85-50-105-41c-112-44-254-83-353-98l-62-9 678-1 677-1v665c0 366-2 665-5 665s-5-12-5-27zm-2082-50c-24-6-23-19 2-26l20-5 6 10 6 10-8 7c-5 4-17 6-26 4zm713-255c-1-54 2-98 6-98 3 0 35 17 70 37l63 37-17 10c-10 5-18 8-18 7 0-9-69 37-73 48l-5 14 12-7 11-7v22l-22-7-23-7 15 18 15 19-12-7-11-7-5 12c-3 7-6-31-6-84zm-887-2-6-15 112-145c61-80 115-148 119-151 13-7 27 14 46 75 10 30 19 57 21 58 1 2 35-16 76-40 80-49 146-78 225-101l51-15 6 14 5 14h-14c-19 0-19 14 0 30 8 7 15 18 15 25v13l-20-5-20-5v19l-42 12c-48 14-180 81-218 110l-24 19 37 41 38 42-6 9-6 10H739l-5-14z"/></g><g fill="#010101" transform="matrix(.1 0 0 -.1 0 300)"><path d="m1 2333 1-668 14 80c58 324 203 595 446 830l103 101 100 66c187 124 359 198 540 232 44 8 89 17 100 19 11 3-278 5-642 6l-663 1 1-667zm1759 650c47-8 135-31 195-50l110-35 98-49c360-179 628-485 762-870l36-104 19-105 18-105 1 668 1 667-662-1-663-1 85-15zM1 668 0 0l673 1 672 1-60 9C656 102 133 608 20 1235L2 1335 1 668zm2989 633c0-92-69-319-141-466l-50-100-67-95-67-95-106-105-105-105-82-58C2178 138 1919 36 1685 7c-16-2 273-5 643-6l672-1v665c0 366-2 665-5 665s-5-13-5-29z"/></g></g></svg>